<svg width="25" height="24" viewBox="0 0 25 24" fill="none" xmlns="http://www.w3.org/2000/svg">
<path d="M22 0C22.7073 0 23.3855 0.280951 23.8856 0.781048C24.3857 1.28115 24.6667 1.95942 24.6667 2.66667V21.3333C24.6667 22.0406 24.3857 22.7189 23.8856 23.219C23.3855 23.719 22.7073 24 22 24H3.33334C2.62609 24 1.94782 23.719 1.44772 23.219C0.947623 22.7189 0.666672 22.0406 0.666672 21.3333V2.66667C0.666672 1.95942 0.947623 1.28115 1.44772 0.781048C1.94782 0.280951 2.62609 0 3.33334 0H22ZM21.3333 20.6667V13.6C21.3333 12.4472 20.8754 11.3416 20.0602 10.5264C19.2451 9.71128 18.1395 9.25333 16.9867 9.25333C15.8533 9.25333 14.5333 9.94667 13.8933 10.9867V9.50667H10.1733V20.6667H13.8933V14.0933C13.8933 13.0667 14.72 12.2267 15.7467 12.2267C16.2417 12.2267 16.7165 12.4233 17.0666 12.7734C17.4167 13.1235 17.6133 13.5983 17.6133 14.0933V20.6667H21.3333ZM5.84001 7.41333C6.43409 7.41333 7.00384 7.17733 7.42392 6.75725C7.84401 6.33717 8.08001 5.76742 8.08001 5.17333C8.08001 3.93333 7.08001 2.92 5.84001 2.92C5.24238 2.92 4.66924 3.1574 4.24666 3.57999C3.82408 4.00257 3.58667 4.57571 3.58667 5.17333C3.58667 6.41333 4.60001 7.41333 5.84001 7.41333ZM7.69334 20.6667V9.50667H4.00001V20.6667H7.69334Z" fill="white"/>
</svg>
