<svg width="28" height="23" viewBox="0 0 28 23" fill="none" xmlns="http://www.w3.org/2000/svg">
<path d="M27.9467 3.00016C26.92 3.46683 25.8133 3.7735 24.6667 3.92016C25.84 3.2135 26.7467 2.0935 27.1733 0.746829C26.0667 1.4135 24.84 1.88016 23.5467 2.14683C22.4933 1.00016 21.0133 0.333496 19.3333 0.333496C16.2 0.333496 13.64 2.8935 13.64 6.0535C13.64 6.50683 13.6933 6.94683 13.7867 7.36016C9.04 7.12016 4.81333 4.84016 2 1.38683C1.50666 2.22683 1.22666 3.2135 1.22666 4.2535C1.22666 6.24016 2.22666 8.00016 3.77333 9.00016C2.82666 9.00016 1.94666 8.7335 1.17333 8.3335V8.3735C1.17333 11.1468 3.14666 13.4668 5.76 13.9868C4.92097 14.2164 4.04012 14.2484 3.18666 14.0802C3.54881 15.2168 4.25805 16.2114 5.21468 16.9241C6.17132 17.6368 7.32726 18.0317 8.52 18.0535C6.49817 19.6541 3.99199 20.5192 1.41333 20.5068C0.959996 20.5068 0.506663 20.4802 0.0533295 20.4268C2.58666 22.0535 5.6 23.0002 8.82666 23.0002C19.3333 23.0002 25.1067 14.2802 25.1067 6.72016C25.1067 6.46683 25.1067 6.22683 25.0933 5.9735C26.2133 5.17349 27.1733 4.16016 27.9467 3.00016Z" fill="white"/>
</svg>
